# xmcd CD database file
#
# Track frame offsets:
#	150
#	14280
#	30776
#	40765
#	57901
#	67208
#	77880
#	87075
#	108460
#	121152
#	129080
#	136533
#	149713
#	163603
#	170402
#	184627
#	198196
#	210933
#
# Disc length: 2904 seconds
#
# Revision: 1
# Processed by: cddbd v1.5.2PL0 Copyright (c) Steve Scherf et al.
# Submitted via: CDex 1.70beta2
#
DISCID=e50b5612
DTITLE=Dee Strickland Johnson - First Round Up
DYEAR=1998
DGENRE=Cowboy
TTITLE0=First Round Up
TTITLE1=Strawberry Roan
TTITLE2=At the Dance
TTITLE3=Little Joe the Wrangler
TTITLE4=Really Rich Rancher and Me
TTITLE5=Boston Horse Trader
TTITLE6=Billy the Kid
TTITLE7=Tom's Truck
TTITLE8=Snag Tooth Sal
TTITLE9=The Old Chisholm Trail
TTITLE10=These Boots Ain't Made for Walkin'?
TTITLE11=The Secret
TTITLE12=Empty Cot in the Bunkhouse
TTITLE13=My Vanishing Boots and Hat
TTITLE14=The Blind Cowboy
TTITLE15=I'd Like to Be in Texas
TTITLE16=The Passing of the Cowboy
TTITLE17=End of the Day
EXTD=YEAR: 1998
EXTT0=
EXTT1=
EXTT2=
EXTT3=
EXTT4=
EXTT5=
EXTT6=
EXTT7=
EXTT8=
EXTT9=
EXTT10=
EXTT11=
EXTT12=
EXTT13=
EXTT14=
EXTT15=
EXTT16=
EXTT17=
PLAYORDER=
